<mxfile host="app.diagrams.net" modified="2021-03-29T13:55:11.701Z" agent="5.0 (Windows NT 10.0; Win64; x64) AppleWebKit/537.36 (KHTML, like Gecko) Chrome/89.0.4389.90 Safari/537.36" etag="5veU9bq8Ji8nUGWTlmde" version="14.5.3" type="github">
  <diagram id="hBj4A-Ws_efcTqZHIXsr" name="第 1 页">
    <mxGraphModel dx="1422" dy="794" grid="1" gridSize="10" guides="1" tooltips="1" connect="1" arrows="1" fold="1" page="1" pageScale="1" pageWidth="827" pageHeight="1169" math="0" shadow="0">
      <root>
        <mxCell id="0" />
        <mxCell id="1" parent="0" />
        <mxCell id="7pqS2-5IXlFHRXc5FD_z-1" value="物资" style="rounded=0;whiteSpace=wrap;html=1;" vertex="1" parent="1">
          <mxGeometry x="240" y="400" width="80" height="40" as="geometry" />
        </mxCell>
        <mxCell id="7pqS2-5IXlFHRXc5FD_z-2" value="物品编号" style="ellipse;whiteSpace=wrap;html=1;" vertex="1" parent="1">
          <mxGeometry x="130" y="270" width="60" height="30" as="geometry" />
        </mxCell>
        <mxCell id="7pqS2-5IXlFHRXc5FD_z-3" value="名称" style="ellipse;whiteSpace=wrap;html=1;" vertex="1" parent="1">
          <mxGeometry x="210" y="270" width="60" height="30" as="geometry" />
        </mxCell>
        <mxCell id="7pqS2-5IXlFHRXc5FD_z-4" value="突破url" style="ellipse;whiteSpace=wrap;html=1;" vertex="1" parent="1">
          <mxGeometry x="130" y="320" width="60" height="30" as="geometry" />
        </mxCell>
        <mxCell id="7pqS2-5IXlFHRXc5FD_z-5" value="规格" style="ellipse;whiteSpace=wrap;html=1;" vertex="1" parent="1">
          <mxGeometry x="130" y="370" width="60" height="30" as="geometry" />
        </mxCell>
        <mxCell id="7pqS2-5IXlFHRXc5FD_z-6" value="单位" style="ellipse;whiteSpace=wrap;html=1;" vertex="1" parent="1">
          <mxGeometry x="120" y="410" width="60" height="30" as="geometry" />
        </mxCell>
        <mxCell id="7pqS2-5IXlFHRXc5FD_z-7" value="描述" style="ellipse;whiteSpace=wrap;html=1;" vertex="1" parent="1">
          <mxGeometry x="120" y="460" width="60" height="30" as="geometry" />
        </mxCell>
        <mxCell id="7pqS2-5IXlFHRXc5FD_z-8" value="排序" style="ellipse;whiteSpace=wrap;html=1;" vertex="1" parent="1">
          <mxGeometry x="130" y="500" width="60" height="30" as="geometry" />
        </mxCell>
        <mxCell id="7pqS2-5IXlFHRXc5FD_z-9" value="状态" style="ellipse;whiteSpace=wrap;html=1;" vertex="1" parent="1">
          <mxGeometry x="130" y="550" width="60" height="30" as="geometry" />
        </mxCell>
        <mxCell id="7pqS2-5IXlFHRXc5FD_z-10" value="" style="endArrow=none;html=1;entryX=0.75;entryY=0;entryDx=0;entryDy=0;" edge="1" parent="1" source="7pqS2-5IXlFHRXc5FD_z-3" target="7pqS2-5IXlFHRXc5FD_z-1">
          <mxGeometry width="50" height="50" relative="1" as="geometry">
            <mxPoint x="390" y="430" as="sourcePoint" />
            <mxPoint x="440" y="380" as="targetPoint" />
          </mxGeometry>
        </mxCell>
        <mxCell id="7pqS2-5IXlFHRXc5FD_z-11" value="" style="endArrow=none;html=1;entryX=0.5;entryY=0;entryDx=0;entryDy=0;exitX=1;exitY=1;exitDx=0;exitDy=0;" edge="1" parent="1" source="7pqS2-5IXlFHRXc5FD_z-2" target="7pqS2-5IXlFHRXc5FD_z-1">
          <mxGeometry width="50" height="50" relative="1" as="geometry">
            <mxPoint x="257.5726569144101" y="309.51425908595274" as="sourcePoint" />
            <mxPoint x="310" y="410" as="targetPoint" />
          </mxGeometry>
        </mxCell>
        <mxCell id="7pqS2-5IXlFHRXc5FD_z-12" value="" style="endArrow=none;html=1;entryX=0.25;entryY=0;entryDx=0;entryDy=0;exitX=1;exitY=0.5;exitDx=0;exitDy=0;" edge="1" parent="1" source="7pqS2-5IXlFHRXc5FD_z-4" target="7pqS2-5IXlFHRXc5FD_z-1">
          <mxGeometry width="50" height="50" relative="1" as="geometry">
            <mxPoint x="267.5726569144101" y="319.51425908595274" as="sourcePoint" />
            <mxPoint x="320" y="420" as="targetPoint" />
          </mxGeometry>
        </mxCell>
        <mxCell id="7pqS2-5IXlFHRXc5FD_z-13" value="" style="endArrow=none;html=1;entryX=0;entryY=0.25;entryDx=0;entryDy=0;exitX=1;exitY=0.5;exitDx=0;exitDy=0;" edge="1" parent="1" source="7pqS2-5IXlFHRXc5FD_z-5" target="7pqS2-5IXlFHRXc5FD_z-1">
          <mxGeometry width="50" height="50" relative="1" as="geometry">
            <mxPoint x="277.5726569144101" y="329.51425908595274" as="sourcePoint" />
            <mxPoint x="330" y="430" as="targetPoint" />
          </mxGeometry>
        </mxCell>
        <mxCell id="7pqS2-5IXlFHRXc5FD_z-14" value="" style="endArrow=none;html=1;entryX=0;entryY=0.5;entryDx=0;entryDy=0;exitX=1;exitY=0.5;exitDx=0;exitDy=0;" edge="1" parent="1" source="7pqS2-5IXlFHRXc5FD_z-6" target="7pqS2-5IXlFHRXc5FD_z-1">
          <mxGeometry width="50" height="50" relative="1" as="geometry">
            <mxPoint x="287.5726569144101" y="339.51425908595274" as="sourcePoint" />
            <mxPoint x="340" y="440" as="targetPoint" />
          </mxGeometry>
        </mxCell>
        <mxCell id="7pqS2-5IXlFHRXc5FD_z-15" value="" style="endArrow=none;html=1;entryX=0.25;entryY=1;entryDx=0;entryDy=0;exitX=1;exitY=0.5;exitDx=0;exitDy=0;" edge="1" parent="1" source="7pqS2-5IXlFHRXc5FD_z-7" target="7pqS2-5IXlFHRXc5FD_z-1">
          <mxGeometry width="50" height="50" relative="1" as="geometry">
            <mxPoint x="297.5726569144101" y="349.51425908595274" as="sourcePoint" />
            <mxPoint x="350" y="450" as="targetPoint" />
          </mxGeometry>
        </mxCell>
        <mxCell id="7pqS2-5IXlFHRXc5FD_z-16" value="" style="endArrow=none;html=1;entryX=1;entryY=0.5;entryDx=0;entryDy=0;exitX=0.35;exitY=1.025;exitDx=0;exitDy=0;exitPerimeter=0;" edge="1" parent="1" source="7pqS2-5IXlFHRXc5FD_z-1" target="7pqS2-5IXlFHRXc5FD_z-8">
          <mxGeometry width="50" height="50" relative="1" as="geometry">
            <mxPoint x="307.5726569144101" y="359.51425908595274" as="sourcePoint" />
            <mxPoint x="360" y="460" as="targetPoint" />
          </mxGeometry>
        </mxCell>
        <mxCell id="7pqS2-5IXlFHRXc5FD_z-17" value="" style="endArrow=none;html=1;exitX=0.5;exitY=1;exitDx=0;exitDy=0;" edge="1" parent="1" source="7pqS2-5IXlFHRXc5FD_z-1" target="7pqS2-5IXlFHRXc5FD_z-9">
          <mxGeometry width="50" height="50" relative="1" as="geometry">
            <mxPoint x="317.5726569144101" y="369.51425908595274" as="sourcePoint" />
            <mxPoint x="370" y="470" as="targetPoint" />
          </mxGeometry>
        </mxCell>
        <mxCell id="7pqS2-5IXlFHRXc5FD_z-18" value="一级类别id" style="ellipse;whiteSpace=wrap;html=1;" vertex="1" parent="1">
          <mxGeometry x="200" y="550" width="60" height="30" as="geometry" />
        </mxCell>
        <mxCell id="7pqS2-5IXlFHRXc5FD_z-19" value="二级类别id" style="ellipse;whiteSpace=wrap;html=1;" vertex="1" parent="1">
          <mxGeometry x="280" y="550" width="60" height="30" as="geometry" />
        </mxCell>
        <mxCell id="7pqS2-5IXlFHRXc5FD_z-20" value="三级类别id" style="ellipse;whiteSpace=wrap;html=1;" vertex="1" parent="1">
          <mxGeometry x="320" y="510" width="60" height="30" as="geometry" />
        </mxCell>
        <mxCell id="7pqS2-5IXlFHRXc5FD_z-22" value="" style="endArrow=none;html=1;entryX=0.5;entryY=0;entryDx=0;entryDy=0;exitX=0.75;exitY=1;exitDx=0;exitDy=0;" edge="1" parent="1" source="7pqS2-5IXlFHRXc5FD_z-1" target="7pqS2-5IXlFHRXc5FD_z-18">
          <mxGeometry width="50" height="50" relative="1" as="geometry">
            <mxPoint x="290" y="450" as="sourcePoint" />
            <mxPoint x="182.98193202754328" y="561.477154137976" as="targetPoint" />
          </mxGeometry>
        </mxCell>
        <mxCell id="7pqS2-5IXlFHRXc5FD_z-23" value="" style="endArrow=none;html=1;entryX=0.3;entryY=-0.033;entryDx=0;entryDy=0;entryPerimeter=0;exitX=0.75;exitY=1;exitDx=0;exitDy=0;" edge="1" parent="1" source="7pqS2-5IXlFHRXc5FD_z-1" target="7pqS2-5IXlFHRXc5FD_z-19">
          <mxGeometry width="50" height="50" relative="1" as="geometry">
            <mxPoint x="310" y="450" as="sourcePoint" />
            <mxPoint x="240" y="560" as="targetPoint" />
          </mxGeometry>
        </mxCell>
        <mxCell id="7pqS2-5IXlFHRXc5FD_z-24" value="" style="endArrow=none;html=1;entryX=0.5;entryY=0;entryDx=0;entryDy=0;exitX=1;exitY=0.75;exitDx=0;exitDy=0;" edge="1" parent="1" source="7pqS2-5IXlFHRXc5FD_z-1" target="7pqS2-5IXlFHRXc5FD_z-20">
          <mxGeometry width="50" height="50" relative="1" as="geometry">
            <mxPoint x="310" y="450" as="sourcePoint" />
            <mxPoint x="308" y="559.01" as="targetPoint" />
          </mxGeometry>
        </mxCell>
        <mxCell id="7pqS2-5IXlFHRXc5FD_z-25" value="物资类别" style="rounded=0;whiteSpace=wrap;html=1;" vertex="1" parent="1">
          <mxGeometry x="480" y="430" width="80" height="40" as="geometry" />
        </mxCell>
        <mxCell id="7pqS2-5IXlFHRXc5FD_z-26" value="包含" style="rhombus;whiteSpace=wrap;html=1;" vertex="1" parent="1">
          <mxGeometry x="376" y="410" width="76" height="50" as="geometry" />
        </mxCell>
        <mxCell id="7pqS2-5IXlFHRXc5FD_z-27" value="名称" style="ellipse;whiteSpace=wrap;html=1;" vertex="1" parent="1">
          <mxGeometry x="520" y="360" width="60" height="30" as="geometry" />
        </mxCell>
        <mxCell id="7pqS2-5IXlFHRXc5FD_z-28" value="描述" style="ellipse;whiteSpace=wrap;html=1;" vertex="1" parent="1">
          <mxGeometry x="590" y="400" width="60" height="30" as="geometry" />
        </mxCell>
        <mxCell id="7pqS2-5IXlFHRXc5FD_z-29" value="排序" style="ellipse;whiteSpace=wrap;html=1;" vertex="1" parent="1">
          <mxGeometry x="600" y="450" width="60" height="30" as="geometry" />
        </mxCell>
        <mxCell id="7pqS2-5IXlFHRXc5FD_z-30" value="父级id" style="ellipse;whiteSpace=wrap;html=1;" vertex="1" parent="1">
          <mxGeometry x="530" y="500" width="60" height="30" as="geometry" />
        </mxCell>
        <mxCell id="7pqS2-5IXlFHRXc5FD_z-33" value="" style="endArrow=none;html=1;entryX=0.5;entryY=1;entryDx=0;entryDy=0;" edge="1" parent="1" source="7pqS2-5IXlFHRXc5FD_z-25" target="7pqS2-5IXlFHRXc5FD_z-27">
          <mxGeometry width="50" height="50" relative="1" as="geometry">
            <mxPoint x="390" y="430" as="sourcePoint" />
            <mxPoint x="440" y="380" as="targetPoint" />
          </mxGeometry>
        </mxCell>
        <mxCell id="7pqS2-5IXlFHRXc5FD_z-34" value="" style="endArrow=none;html=1;entryX=0;entryY=0.5;entryDx=0;entryDy=0;exitX=1;exitY=0;exitDx=0;exitDy=0;" edge="1" parent="1" source="7pqS2-5IXlFHRXc5FD_z-25" target="7pqS2-5IXlFHRXc5FD_z-28">
          <mxGeometry width="50" height="50" relative="1" as="geometry">
            <mxPoint x="540" y="440" as="sourcePoint" />
            <mxPoint x="560" y="400" as="targetPoint" />
          </mxGeometry>
        </mxCell>
        <mxCell id="7pqS2-5IXlFHRXc5FD_z-35" value="" style="endArrow=none;html=1;entryX=0;entryY=0;entryDx=0;entryDy=0;" edge="1" parent="1" target="7pqS2-5IXlFHRXc5FD_z-29">
          <mxGeometry width="50" height="50" relative="1" as="geometry">
            <mxPoint x="560" y="454" as="sourcePoint" />
            <mxPoint x="570" y="410" as="targetPoint" />
          </mxGeometry>
        </mxCell>
        <mxCell id="7pqS2-5IXlFHRXc5FD_z-36" value="" style="endArrow=none;html=1;entryX=0.5;entryY=0;entryDx=0;entryDy=0;exitX=0.863;exitY=1;exitDx=0;exitDy=0;exitPerimeter=0;" edge="1" parent="1" source="7pqS2-5IXlFHRXc5FD_z-25" target="7pqS2-5IXlFHRXc5FD_z-30">
          <mxGeometry width="50" height="50" relative="1" as="geometry">
            <mxPoint x="560" y="460" as="sourcePoint" />
            <mxPoint x="580" y="420" as="targetPoint" />
          </mxGeometry>
        </mxCell>
        <mxCell id="7pqS2-5IXlFHRXc5FD_z-37" value="" style="endArrow=none;html=1;entryX=0;entryY=0.25;entryDx=0;entryDy=0;exitX=1;exitY=0.5;exitDx=0;exitDy=0;" edge="1" parent="1" source="7pqS2-5IXlFHRXc5FD_z-26" target="7pqS2-5IXlFHRXc5FD_z-25">
          <mxGeometry width="50" height="50" relative="1" as="geometry">
            <mxPoint x="540" y="440" as="sourcePoint" />
            <mxPoint x="560" y="400" as="targetPoint" />
          </mxGeometry>
        </mxCell>
        <mxCell id="7pqS2-5IXlFHRXc5FD_z-38" value="" style="endArrow=none;html=1;exitX=1;exitY=0.5;exitDx=0;exitDy=0;entryX=0;entryY=0.5;entryDx=0;entryDy=0;" edge="1" parent="1" source="7pqS2-5IXlFHRXc5FD_z-1" target="7pqS2-5IXlFHRXc5FD_z-26">
          <mxGeometry width="50" height="50" relative="1" as="geometry">
            <mxPoint x="462" y="445" as="sourcePoint" />
            <mxPoint x="380" y="430" as="targetPoint" />
          </mxGeometry>
        </mxCell>
        <mxCell id="7pqS2-5IXlFHRXc5FD_z-39" value="1" style="text;html=1;strokeColor=none;fillColor=none;align=center;verticalAlign=middle;whiteSpace=wrap;rounded=0;" vertex="1" parent="1">
          <mxGeometry x="350" y="400" width="40" height="20" as="geometry" />
        </mxCell>
        <mxCell id="7pqS2-5IXlFHRXc5FD_z-40" value="n" style="text;html=1;strokeColor=none;fillColor=none;align=center;verticalAlign=middle;whiteSpace=wrap;rounded=0;" vertex="1" parent="1">
          <mxGeometry x="440" y="410" width="40" height="20" as="geometry" />
        </mxCell>
        <mxCell id="7pqS2-5IXlFHRXc5FD_z-43" value="出库单" style="rounded=0;whiteSpace=wrap;html=1;" vertex="1" parent="1">
          <mxGeometry x="280" y="140" width="80" height="40" as="geometry" />
        </mxCell>
        <mxCell id="7pqS2-5IXlFHRXc5FD_z-44" value="入库单" style="rounded=0;whiteSpace=wrap;html=1;" vertex="1" parent="1">
          <mxGeometry x="580" y="270" width="80" height="50" as="geometry" />
        </mxCell>
        <mxCell id="7pqS2-5IXlFHRXc5FD_z-45" value="包含" style="rhombus;whiteSpace=wrap;html=1;" vertex="1" parent="1">
          <mxGeometry x="300" y="270" width="70" height="50" as="geometry" />
        </mxCell>
        <mxCell id="7pqS2-5IXlFHRXc5FD_z-46" value="包含" style="rhombus;whiteSpace=wrap;html=1;" vertex="1" parent="1">
          <mxGeometry x="430" y="280" width="70" height="50" as="geometry" />
        </mxCell>
        <mxCell id="7pqS2-5IXlFHRXc5FD_z-47" value="" style="endArrow=none;html=1;exitX=1;exitY=0;exitDx=0;exitDy=0;" edge="1" parent="1" source="7pqS2-5IXlFHRXc5FD_z-1" target="7pqS2-5IXlFHRXc5FD_z-45">
          <mxGeometry width="50" height="50" relative="1" as="geometry">
            <mxPoint x="390" y="430" as="sourcePoint" />
            <mxPoint x="440" y="380" as="targetPoint" />
          </mxGeometry>
        </mxCell>
        <mxCell id="7pqS2-5IXlFHRXc5FD_z-48" value="" style="endArrow=none;html=1;exitX=1;exitY=0.25;exitDx=0;exitDy=0;entryX=0.75;entryY=0;entryDx=0;entryDy=0;" edge="1" parent="1" source="7pqS2-5IXlFHRXc5FD_z-1" target="7pqS2-5IXlFHRXc5FD_z-57">
          <mxGeometry width="50" height="50" relative="1" as="geometry">
            <mxPoint x="330" y="410" as="sourcePoint" />
            <mxPoint x="341.75925925925935" y="327.6851851851852" as="targetPoint" />
          </mxGeometry>
        </mxCell>
        <mxCell id="7pqS2-5IXlFHRXc5FD_z-49" value="" style="endArrow=none;html=1;exitX=0.5;exitY=0;exitDx=0;exitDy=0;entryX=0.5;entryY=1;entryDx=0;entryDy=0;" edge="1" parent="1" source="7pqS2-5IXlFHRXc5FD_z-45" target="7pqS2-5IXlFHRXc5FD_z-43">
          <mxGeometry width="50" height="50" relative="1" as="geometry">
            <mxPoint x="340" y="420" as="sourcePoint" />
            <mxPoint x="351.75925925925935" y="337.6851851851852" as="targetPoint" />
          </mxGeometry>
        </mxCell>
        <mxCell id="7pqS2-5IXlFHRXc5FD_z-51" value="" style="endArrow=none;html=1;exitX=1;exitY=0.5;exitDx=0;exitDy=0;entryX=0;entryY=0.5;entryDx=0;entryDy=0;" edge="1" parent="1" source="7pqS2-5IXlFHRXc5FD_z-46" target="7pqS2-5IXlFHRXc5FD_z-44">
          <mxGeometry width="50" height="50" relative="1" as="geometry">
            <mxPoint x="350" y="430" as="sourcePoint" />
            <mxPoint x="361.75925925925935" y="347.6851851851852" as="targetPoint" />
          </mxGeometry>
        </mxCell>
        <mxCell id="7pqS2-5IXlFHRXc5FD_z-55" value="n" style="text;html=1;strokeColor=none;fillColor=none;align=center;verticalAlign=middle;whiteSpace=wrap;rounded=0;" vertex="1" parent="1">
          <mxGeometry x="280" y="230" width="40" height="20" as="geometry" />
        </mxCell>
        <mxCell id="7pqS2-5IXlFHRXc5FD_z-56" value="n" style="text;html=1;strokeColor=none;fillColor=none;align=center;verticalAlign=middle;whiteSpace=wrap;rounded=0;" vertex="1" parent="1">
          <mxGeometry x="290" y="320" width="40" height="20" as="geometry" />
        </mxCell>
        <mxCell id="7pqS2-5IXlFHRXc5FD_z-57" value="n" style="text;html=1;strokeColor=none;fillColor=none;align=center;verticalAlign=middle;whiteSpace=wrap;rounded=0;" vertex="1" parent="1">
          <mxGeometry x="390" y="310" width="70" height="20" as="geometry" />
        </mxCell>
        <mxCell id="7pqS2-5IXlFHRXc5FD_z-58" value="n" style="text;html=1;strokeColor=none;fillColor=none;align=center;verticalAlign=middle;whiteSpace=wrap;rounded=0;" vertex="1" parent="1">
          <mxGeometry x="502" y="275" width="40" height="20" as="geometry" />
        </mxCell>
        <mxCell id="7pqS2-5IXlFHRXc5FD_z-60" value="单号" style="ellipse;whiteSpace=wrap;html=1;" vertex="1" parent="1">
          <mxGeometry x="190" y="145" width="60" height="30" as="geometry" />
        </mxCell>
        <mxCell id="7pqS2-5IXlFHRXc5FD_z-63" value="物资数量" style="ellipse;whiteSpace=wrap;html=1;" vertex="1" parent="1">
          <mxGeometry x="250" y="80" width="60" height="30" as="geometry" />
        </mxCell>
        <mxCell id="7pqS2-5IXlFHRXc5FD_z-65" value="描述" style="ellipse;whiteSpace=wrap;html=1;" vertex="1" parent="1">
          <mxGeometry x="340" y="70" width="60" height="30" as="geometry" />
        </mxCell>
        <mxCell id="7pqS2-5IXlFHRXc5FD_z-66" value="" style="endArrow=none;html=1;entryX=1;entryY=1;entryDx=0;entryDy=0;exitX=0;exitY=0.75;exitDx=0;exitDy=0;" edge="1" parent="1" source="7pqS2-5IXlFHRXc5FD_z-43" target="7pqS2-5IXlFHRXc5FD_z-60">
          <mxGeometry width="50" height="50" relative="1" as="geometry">
            <mxPoint x="390" y="430" as="sourcePoint" />
            <mxPoint x="440" y="380" as="targetPoint" />
          </mxGeometry>
        </mxCell>
        <mxCell id="7pqS2-5IXlFHRXc5FD_z-67" value="" style="endArrow=none;html=1;entryX=0.5;entryY=1;entryDx=0;entryDy=0;exitX=0.25;exitY=0;exitDx=0;exitDy=0;" edge="1" parent="1" source="7pqS2-5IXlFHRXc5FD_z-43" target="7pqS2-5IXlFHRXc5FD_z-63">
          <mxGeometry width="50" height="50" relative="1" as="geometry">
            <mxPoint x="290" y="180" as="sourcePoint" />
            <mxPoint x="251.21320343559637" y="180.60660171779818" as="targetPoint" />
          </mxGeometry>
        </mxCell>
        <mxCell id="7pqS2-5IXlFHRXc5FD_z-68" value="" style="endArrow=none;html=1;entryX=0.267;entryY=1;entryDx=0;entryDy=0;entryPerimeter=0;exitX=0.5;exitY=0;exitDx=0;exitDy=0;" edge="1" parent="1" source="7pqS2-5IXlFHRXc5FD_z-43" target="7pqS2-5IXlFHRXc5FD_z-65">
          <mxGeometry width="50" height="50" relative="1" as="geometry">
            <mxPoint x="330" y="130" as="sourcePoint" />
            <mxPoint x="290" y="120" as="targetPoint" />
          </mxGeometry>
        </mxCell>
        <mxCell id="7pqS2-5IXlFHRXc5FD_z-70" value="物资数量" style="ellipse;whiteSpace=wrap;html=1;" vertex="1" parent="1">
          <mxGeometry x="688" y="270" width="60" height="30" as="geometry" />
        </mxCell>
        <mxCell id="7pqS2-5IXlFHRXc5FD_z-71" value="描述" style="ellipse;whiteSpace=wrap;html=1;" vertex="1" parent="1">
          <mxGeometry x="688" y="320" width="60" height="30" as="geometry" />
        </mxCell>
        <mxCell id="7pqS2-5IXlFHRXc5FD_z-74" value="单号" style="ellipse;whiteSpace=wrap;html=1;" vertex="1" parent="1">
          <mxGeometry x="688" y="220" width="60" height="30" as="geometry" />
        </mxCell>
        <mxCell id="7pqS2-5IXlFHRXc5FD_z-75" value="" style="endArrow=none;html=1;entryX=0;entryY=0.5;entryDx=0;entryDy=0;" edge="1" parent="1" target="7pqS2-5IXlFHRXc5FD_z-74">
          <mxGeometry width="50" height="50" relative="1" as="geometry">
            <mxPoint x="608" y="270" as="sourcePoint" />
            <mxPoint x="658" y="220" as="targetPoint" />
          </mxGeometry>
        </mxCell>
        <mxCell id="7pqS2-5IXlFHRXc5FD_z-77" value="" style="endArrow=none;html=1;entryX=0;entryY=0.3;entryDx=0;entryDy=0;entryPerimeter=0;exitX=1;exitY=0.25;exitDx=0;exitDy=0;" edge="1" parent="1" source="7pqS2-5IXlFHRXc5FD_z-44" target="7pqS2-5IXlFHRXc5FD_z-70">
          <mxGeometry width="50" height="50" relative="1" as="geometry">
            <mxPoint x="618" y="280" as="sourcePoint" />
            <mxPoint x="698" y="245" as="targetPoint" />
          </mxGeometry>
        </mxCell>
        <mxCell id="7pqS2-5IXlFHRXc5FD_z-78" value="" style="endArrow=none;html=1;exitX=1;exitY=1;exitDx=0;exitDy=0;" edge="1" parent="1" source="7pqS2-5IXlFHRXc5FD_z-44" target="7pqS2-5IXlFHRXc5FD_z-71">
          <mxGeometry width="50" height="50" relative="1" as="geometry">
            <mxPoint x="628" y="290" as="sourcePoint" />
            <mxPoint x="708" y="255" as="targetPoint" />
          </mxGeometry>
        </mxCell>
        <mxCell id="7pqS2-5IXlFHRXc5FD_z-80" value="发放" style="rhombus;whiteSpace=wrap;html=1;" vertex="1" parent="1">
          <mxGeometry x="410" y="115" width="44" height="30" as="geometry" />
        </mxCell>
        <mxCell id="7pqS2-5IXlFHRXc5FD_z-81" value="发放方" style="rounded=0;whiteSpace=wrap;html=1;" vertex="1" parent="1">
          <mxGeometry x="490" y="75" width="80" height="40" as="geometry" />
        </mxCell>
        <mxCell id="7pqS2-5IXlFHRXc5FD_z-82" value="" style="endArrow=none;html=1;exitX=1;exitY=0.5;exitDx=0;exitDy=0;entryX=0;entryY=0.5;entryDx=0;entryDy=0;" edge="1" parent="1" source="7pqS2-5IXlFHRXc5FD_z-43" target="7pqS2-5IXlFHRXc5FD_z-80">
          <mxGeometry width="50" height="50" relative="1" as="geometry">
            <mxPoint x="390" y="190" as="sourcePoint" />
            <mxPoint x="440" y="140" as="targetPoint" />
          </mxGeometry>
        </mxCell>
        <mxCell id="7pqS2-5IXlFHRXc5FD_z-83" value="" style="endArrow=none;html=1;exitX=1;exitY=0.5;exitDx=0;exitDy=0;entryX=0;entryY=0.5;entryDx=0;entryDy=0;" edge="1" parent="1" source="7pqS2-5IXlFHRXc5FD_z-80" target="7pqS2-5IXlFHRXc5FD_z-81">
          <mxGeometry width="50" height="50" relative="1" as="geometry">
            <mxPoint x="370" y="170" as="sourcePoint" />
            <mxPoint x="420" y="140" as="targetPoint" />
          </mxGeometry>
        </mxCell>
        <mxCell id="7pqS2-5IXlFHRXc5FD_z-84" value="1" style="text;html=1;strokeColor=none;fillColor=none;align=center;verticalAlign=middle;whiteSpace=wrap;rounded=0;" vertex="1" parent="1">
          <mxGeometry x="370" y="150" width="40" height="20" as="geometry" />
        </mxCell>
        <mxCell id="7pqS2-5IXlFHRXc5FD_z-86" value="n" style="text;html=1;strokeColor=none;fillColor=none;align=center;verticalAlign=middle;whiteSpace=wrap;rounded=0;" vertex="1" parent="1">
          <mxGeometry x="440" y="85" width="40" height="20" as="geometry" />
        </mxCell>
        <mxCell id="7pqS2-5IXlFHRXc5FD_z-87" value="发放地" style="ellipse;whiteSpace=wrap;html=1;" vertex="1" parent="1">
          <mxGeometry x="470" y="20" width="60" height="30" as="geometry" />
        </mxCell>
        <mxCell id="7pqS2-5IXlFHRXc5FD_z-88" value="详细地址" style="ellipse;whiteSpace=wrap;html=1;" vertex="1" parent="1">
          <mxGeometry x="550" y="30" width="60" height="30" as="geometry" />
        </mxCell>
        <mxCell id="7pqS2-5IXlFHRXc5FD_z-89" value="联系人" style="ellipse;whiteSpace=wrap;html=1;" vertex="1" parent="1">
          <mxGeometry x="610" y="75" width="60" height="30" as="geometry" />
        </mxCell>
        <mxCell id="7pqS2-5IXlFHRXc5FD_z-90" value="电话" style="ellipse;whiteSpace=wrap;html=1;" vertex="1" parent="1">
          <mxGeometry x="600" y="115" width="60" height="30" as="geometry" />
        </mxCell>
        <mxCell id="7pqS2-5IXlFHRXc5FD_z-91" value="接收" style="rhombus;whiteSpace=wrap;html=1;" vertex="1" parent="1">
          <mxGeometry x="536" y="230" width="44" height="30" as="geometry" />
        </mxCell>
        <mxCell id="7pqS2-5IXlFHRXc5FD_z-92" value="来源者" style="rounded=0;whiteSpace=wrap;html=1;" vertex="1" parent="1">
          <mxGeometry x="462" y="185" width="80" height="40" as="geometry" />
        </mxCell>
        <mxCell id="7pqS2-5IXlFHRXc5FD_z-93" value="" style="endArrow=none;html=1;exitX=0;exitY=0.5;exitDx=0;exitDy=0;entryX=0.5;entryY=1;entryDx=0;entryDy=0;" edge="1" parent="1" source="7pqS2-5IXlFHRXc5FD_z-91" target="7pqS2-5IXlFHRXc5FD_z-92">
          <mxGeometry width="50" height="50" relative="1" as="geometry">
            <mxPoint x="370" y="285" as="sourcePoint" />
            <mxPoint x="420" y="255" as="targetPoint" />
          </mxGeometry>
        </mxCell>
        <mxCell id="7pqS2-5IXlFHRXc5FD_z-95" value="来源地" style="ellipse;whiteSpace=wrap;html=1;" vertex="1" parent="1">
          <mxGeometry x="472" y="145" width="60" height="30" as="geometry" />
        </mxCell>
        <mxCell id="7pqS2-5IXlFHRXc5FD_z-96" value="详细地址" style="ellipse;whiteSpace=wrap;html=1;" vertex="1" parent="1">
          <mxGeometry x="550" y="145" width="60" height="30" as="geometry" />
        </mxCell>
        <mxCell id="7pqS2-5IXlFHRXc5FD_z-97" value="联系人" style="ellipse;whiteSpace=wrap;html=1;" vertex="1" parent="1">
          <mxGeometry x="610" y="190" width="60" height="30" as="geometry" />
        </mxCell>
        <mxCell id="7pqS2-5IXlFHRXc5FD_z-98" value="电话" style="ellipse;whiteSpace=wrap;html=1;" vertex="1" parent="1">
          <mxGeometry x="376" y="220" width="60" height="30" as="geometry" />
        </mxCell>
        <mxCell id="7pqS2-5IXlFHRXc5FD_z-100" value="" style="endArrow=none;html=1;entryX=0;entryY=0.5;entryDx=0;entryDy=0;exitX=1;exitY=0.5;exitDx=0;exitDy=0;" edge="1" parent="1" source="7pqS2-5IXlFHRXc5FD_z-92" target="7pqS2-5IXlFHRXc5FD_z-97">
          <mxGeometry width="50" height="50" relative="1" as="geometry">
            <mxPoint x="390" y="330" as="sourcePoint" />
            <mxPoint x="440" y="280" as="targetPoint" />
          </mxGeometry>
        </mxCell>
        <mxCell id="7pqS2-5IXlFHRXc5FD_z-101" value="" style="endArrow=none;html=1;exitX=0;exitY=0.5;exitDx=0;exitDy=0;entryX=1;entryY=0;entryDx=0;entryDy=0;" edge="1" parent="1" source="7pqS2-5IXlFHRXc5FD_z-92" target="7pqS2-5IXlFHRXc5FD_z-98">
          <mxGeometry width="50" height="50" relative="1" as="geometry">
            <mxPoint x="410" y="230" as="sourcePoint" />
            <mxPoint x="460" y="180" as="targetPoint" />
          </mxGeometry>
        </mxCell>
        <mxCell id="7pqS2-5IXlFHRXc5FD_z-110" value="" style="endArrow=none;html=1;exitX=0.5;exitY=0;exitDx=0;exitDy=0;entryX=0.5;entryY=1;entryDx=0;entryDy=0;" edge="1" parent="1" source="7pqS2-5IXlFHRXc5FD_z-92" target="7pqS2-5IXlFHRXc5FD_z-95">
          <mxGeometry width="50" height="50" relative="1" as="geometry">
            <mxPoint x="472" y="215" as="sourcePoint" />
            <mxPoint x="437.21320343559637" y="234.39339828220182" as="targetPoint" />
          </mxGeometry>
        </mxCell>
        <mxCell id="7pqS2-5IXlFHRXc5FD_z-111" value="" style="endArrow=none;html=1;exitX=0;exitY=1;exitDx=0;exitDy=0;entryX=1;entryY=0;entryDx=0;entryDy=0;" edge="1" parent="1" source="7pqS2-5IXlFHRXc5FD_z-96" target="7pqS2-5IXlFHRXc5FD_z-92">
          <mxGeometry width="50" height="50" relative="1" as="geometry">
            <mxPoint x="482" y="225" as="sourcePoint" />
            <mxPoint x="447.21320343559637" y="244.39339828220182" as="targetPoint" />
          </mxGeometry>
        </mxCell>
        <mxCell id="7pqS2-5IXlFHRXc5FD_z-112" value="" style="endArrow=none;html=1;exitX=0.5;exitY=1;exitDx=0;exitDy=0;entryX=0.25;entryY=0;entryDx=0;entryDy=0;" edge="1" parent="1" source="7pqS2-5IXlFHRXc5FD_z-87" target="7pqS2-5IXlFHRXc5FD_z-81">
          <mxGeometry width="50" height="50" relative="1" as="geometry">
            <mxPoint x="568.7867965644036" y="180.60660171779818" as="sourcePoint" />
            <mxPoint x="510" y="70" as="targetPoint" />
          </mxGeometry>
        </mxCell>
        <mxCell id="7pqS2-5IXlFHRXc5FD_z-113" value="" style="endArrow=none;html=1;exitX=0;exitY=1;exitDx=0;exitDy=0;entryX=0.65;entryY=0.05;entryDx=0;entryDy=0;entryPerimeter=0;" edge="1" parent="1" source="7pqS2-5IXlFHRXc5FD_z-88" target="7pqS2-5IXlFHRXc5FD_z-81">
          <mxGeometry width="50" height="50" relative="1" as="geometry">
            <mxPoint x="578.7867965644036" y="190.60660171779818" as="sourcePoint" />
            <mxPoint x="562" y="205" as="targetPoint" />
          </mxGeometry>
        </mxCell>
        <mxCell id="7pqS2-5IXlFHRXc5FD_z-114" value="" style="endArrow=none;html=1;exitX=0;exitY=0.5;exitDx=0;exitDy=0;entryX=1;entryY=0.25;entryDx=0;entryDy=0;" edge="1" parent="1" source="7pqS2-5IXlFHRXc5FD_z-89" target="7pqS2-5IXlFHRXc5FD_z-81">
          <mxGeometry width="50" height="50" relative="1" as="geometry">
            <mxPoint x="588.7867965644036" y="200.60660171779818" as="sourcePoint" />
            <mxPoint x="572" y="215" as="targetPoint" />
          </mxGeometry>
        </mxCell>
        <mxCell id="7pqS2-5IXlFHRXc5FD_z-115" value="" style="endArrow=none;html=1;exitX=0;exitY=0.5;exitDx=0;exitDy=0;entryX=1;entryY=0.75;entryDx=0;entryDy=0;fontStyle=1" edge="1" parent="1" source="7pqS2-5IXlFHRXc5FD_z-90" target="7pqS2-5IXlFHRXc5FD_z-81">
          <mxGeometry width="50" height="50" relative="1" as="geometry">
            <mxPoint x="598.7867965644036" y="210.60660171779818" as="sourcePoint" />
            <mxPoint x="582" y="225" as="targetPoint" />
          </mxGeometry>
        </mxCell>
        <mxCell id="7pqS2-5IXlFHRXc5FD_z-116" value="" style="endArrow=none;html=1;entryX=1;entryY=0.5;entryDx=0;entryDy=0;" edge="1" parent="1" source="7pqS2-5IXlFHRXc5FD_z-44" target="7pqS2-5IXlFHRXc5FD_z-91">
          <mxGeometry width="50" height="50" relative="1" as="geometry">
            <mxPoint x="550" y="310" as="sourcePoint" />
            <mxPoint x="600" y="260" as="targetPoint" />
          </mxGeometry>
        </mxCell>
        <mxCell id="7pqS2-5IXlFHRXc5FD_z-117" value="n" style="text;html=1;strokeColor=none;fillColor=none;align=center;verticalAlign=middle;whiteSpace=wrap;rounded=0;" vertex="1" parent="1">
          <mxGeometry x="480" y="225" width="40" height="20" as="geometry" />
        </mxCell>
        <mxCell id="7pqS2-5IXlFHRXc5FD_z-118" value="1" style="text;html=1;strokeColor=none;fillColor=none;align=center;verticalAlign=middle;whiteSpace=wrap;rounded=0;" vertex="1" parent="1">
          <mxGeometry x="580" y="235" width="40" height="20" as="geometry" />
        </mxCell>
      </root>
    </mxGraphModel>
  </diagram>
</mxfile>
